<svg width="25" height="25" viewBox="0 0 25 25" fill="none" xmlns="http://www.w3.org/2000/svg">
<path d="M12.5 3.125C14.3542 3.125 16.1668 3.67483 17.7085 4.70497C19.2502 5.73511 20.4518 7.19929 21.1614 8.91234C21.8709 10.6254 22.0566 12.5104 21.6949 14.329C21.3331 16.1475 20.4402 17.818 19.1291 19.1291C17.818 20.4402 16.1475 21.3331 14.329 21.6949C12.5104 22.0566 10.6254 21.8709 8.91235 21.1614C7.19929 20.4518 5.73512 19.2502 4.70498 17.7085C3.67484 16.1668 3.12501 14.3542 3.12501 12.5C3.12501 10.0136 4.11273 7.62903 5.87088 5.87087C7.62903 4.11272 10.0136 3.125 12.5 3.125ZM12.5 1.5625C10.3368 1.5625 8.22212 2.20397 6.42346 3.4058C4.62479 4.60763 3.22291 6.31583 2.39507 8.3144C1.56724 10.313 1.35064 12.5121 1.77267 14.6338C2.19469 16.7555 3.23639 18.7043 4.76602 20.234C6.29566 21.7636 8.24454 22.8053 10.3662 23.2273C12.4879 23.6494 14.687 23.4328 16.6856 22.6049C18.6842 21.7771 20.3924 20.3752 21.5942 18.5765C22.796 16.7779 23.4375 14.6632 23.4375 12.5C23.4375 9.59919 22.2852 6.8172 20.234 4.76602C18.1828 2.71484 15.4008 1.5625 12.5 1.5625Z" fill="#274C77"/>
<path d="M12.5 9.375C13.1181 9.375 13.7223 9.55828 14.2362 9.90166C14.7501 10.245 15.1506 10.7331 15.3871 11.3041C15.6236 11.8751 15.6855 12.5035 15.565 13.1097C15.4444 13.7158 15.1467 14.2727 14.7097 14.7097C14.2727 15.1467 13.7159 15.4444 13.1097 15.565C12.5035 15.6855 11.8751 15.6236 11.3041 15.3871C10.7331 15.1506 10.245 14.7501 9.90166 14.2362C9.55828 13.7223 9.375 13.1181 9.375 12.5C9.375 11.6712 9.70424 10.8763 10.2903 10.2903C10.8763 9.70424 11.6712 9.375 12.5 9.375ZM12.5 7.8125C11.5729 7.8125 10.6666 8.08742 9.89577 8.60249C9.12491 9.11756 8.5241 9.84964 8.16932 10.7062C7.81453 11.5627 7.7217 12.5052 7.90257 13.4145C8.08344 14.3238 8.52988 15.159 9.18544 15.8146C9.841 16.4701 10.6762 16.9166 11.5855 17.0974C12.4948 17.2783 13.4373 17.1855 14.2938 16.8307C15.1504 16.4759 15.8824 15.8751 16.3975 15.1042C16.9126 14.3334 17.1875 13.4271 17.1875 12.5C17.1875 11.2568 16.6936 10.0645 15.8146 9.18544C14.9355 8.30636 13.7432 7.8125 12.5 7.8125Z" fill="#274C77"/>
</svg>
