<svg width="60" height="61" viewBox="0 0 60 61" fill="none" xmlns="http://www.w3.org/2000/svg">
<circle cx="29.8238" cy="30.3164" r="29.7493" fill="#274C77"/>
<path d="M35.6837 46.0644H23.9643C15.541 46.0644 15.541 41.5963 15.541 37.641V36.1761C15.541 32.9093 15.541 29.2177 22.4994 29.2177C24.2427 29.2177 24.8872 29.6425 25.7955 30.3164C25.8394 30.3604 25.898 30.3897 25.942 30.4483L27.4362 32.0304C28.696 33.3635 30.9813 33.3635 32.2412 32.0304L33.7354 30.4483C33.7793 30.4043 33.8233 30.3604 33.8819 30.3164C34.7901 29.6279 35.4347 29.2177 37.178 29.2177C44.1364 29.2177 44.1364 32.9093 44.1364 36.1761V37.641C44.1071 43.2371 41.2798 46.0644 35.6837 46.0644ZM22.4994 31.4151C17.7384 31.4151 17.7384 32.9093 17.7384 36.1761V37.641C17.7384 41.6549 17.7384 43.867 23.9643 43.867H35.6837C40.0492 43.867 41.9097 42.0065 41.9097 37.641V36.1761C41.9097 32.9093 41.9097 31.4151 37.1487 31.4151C36.0939 31.4151 35.8742 31.5469 35.2443 32.0157L33.8233 33.5246C32.7685 34.6379 31.3476 35.2532 29.824 35.2532C28.3005 35.2532 26.8795 34.6379 25.8248 33.5246L24.4038 32.0157C23.7739 31.5469 23.5542 31.4151 22.4994 31.4151Z" fill="white"/>
<path d="M40.0785 31.4151C39.4779 31.4151 38.9798 30.917 38.9798 30.3164V21.5269C38.9798 18.2601 38.9798 16.7659 34.2188 16.7659H25.4292C20.6682 16.7659 20.6682 18.2601 20.6682 21.5269V30.3164C20.6682 30.917 20.1701 31.4151 19.5695 31.4151C18.9689 31.4151 18.4708 30.917 18.4708 30.3164V21.5269C18.4708 18.2601 18.4708 14.5685 25.4292 14.5685H34.2188C41.1772 14.5685 41.1772 18.2601 41.1772 21.5269V30.3164C41.1772 30.917 40.6791 31.4151 40.0785 31.4151Z" fill="white"/>
<path d="M32.5777 27.3572H27.6995C27.0989 27.3572 26.6008 26.8592 26.6008 26.2585C26.6008 25.6579 27.0989 25.1599 27.6995 25.1599H32.5777C33.1783 25.1599 33.6764 25.6579 33.6764 26.2585C33.6764 26.8592 33.193 27.3572 32.5777 27.3572Z" fill="white"/>
<path d="M33.8082 22.9625H26.4836C25.883 22.9625 25.3849 22.4644 25.3849 21.8638C25.3849 21.2632 25.883 20.7651 26.4836 20.7651H33.8082C34.4088 20.7651 34.9069 21.2632 34.9069 21.8638C34.9069 22.4644 34.4234 22.9625 33.8082 22.9625Z" fill="white"/>
</svg>
