<svg width="27" height="27" viewBox="0 0 27 27" fill="none" xmlns="http://www.w3.org/2000/svg">
<path d="M10.9001 16.2711H12.6855V21.0964L12.6855 21.1411C12.6855 21.4772 12.6854 21.7969 12.711 22.0348C12.724 22.155 12.7503 22.335 12.8285 22.5101C12.9153 22.7041 13.1173 22.9934 13.5118 23.0803C13.9062 23.1671 14.2111 22.9895 14.3713 22.8499C14.5159 22.7239 14.6154 22.5716 14.6777 22.4679C14.8008 22.2628 14.9351 21.9727 15.0762 21.6677L15.095 21.6271L18.4478 14.3851C18.456 14.3673 18.4643 14.3495 18.4725 14.3318C18.7004 13.8397 18.9096 13.3879 19.021 13.0097C19.1404 12.6041 19.2119 12.0748 18.8923 11.5747C18.5727 11.0746 18.0624 10.9171 17.6441 10.855C17.2541 10.7972 16.7562 10.7973 16.2139 10.7973C16.1944 10.7973 16.1748 10.7973 16.1552 10.7973H14.3698V5.97209C14.3698 5.95716 14.3698 5.94225 14.3698 5.92738C14.3698 5.59125 14.3699 5.27159 14.3443 5.03369C14.3314 4.91349 14.305 4.73347 14.2268 4.55838C14.1401 4.36435 13.938 4.07509 13.5436 3.98821C13.1491 3.90133 12.8442 4.07894 12.684 4.21858C12.5394 4.3446 12.4399 4.49689 12.3777 4.60053C12.2545 4.80567 12.1203 5.09577 11.9791 5.40081C11.9728 5.41431 11.9666 5.42784 11.9603 5.44139L8.60754 12.6834L9.37174 13.0372L8.60754 12.6834C8.5993 12.7012 8.59107 12.7189 8.58288 12.7366C8.35498 13.2287 8.14572 13.6806 8.03436 14.0588C7.91493 14.4644 7.84344 14.9937 8.16304 15.4938C8.48263 15.9939 8.99292 16.1514 9.4112 16.2134C9.8012 16.2713 10.2991 16.2712 10.8414 16.2711C10.8609 16.2711 10.8805 16.2711 10.9001 16.2711ZM13.2116 21.6352C13.2116 21.6352 13.2121 21.6344 13.2132 21.6331C13.2121 21.6346 13.2116 21.6352 13.2116 21.6352ZM14.3913 21.895C14.3913 21.8951 14.3911 21.8942 14.3907 21.8924L14.3913 21.895ZM13.8437 5.43327C13.8437 5.4333 13.8432 5.43399 13.8423 5.43526C13.8432 5.43388 13.8437 5.43324 13.8437 5.43327ZM12.6641 5.17344C12.6641 5.17342 12.6642 5.1742 12.6646 5.17587L12.6641 5.17344Z" stroke="#274C77" stroke-width="1.68424"/>
</svg>
