<svg width="27" height="26" viewBox="0 0 27 26" fill="none" xmlns="http://www.w3.org/2000/svg">
<path d="M16.4751 4.5827V3.74058H15.633H11.4224H10.5802V4.5827V4.79323C10.5802 4.80413 10.5802 4.8152 10.5802 4.8264C10.5801 4.99472 10.58 5.19512 10.6032 5.36746C10.6311 5.57551 10.706 5.86329 10.9502 6.1075C11.1944 6.35171 11.4822 6.42658 11.6903 6.45455C11.8626 6.47772 12.063 6.4776 12.2313 6.47749C12.2425 6.47749 12.2536 6.47748 12.2645 6.47748H14.7909C14.8018 6.47748 14.8128 6.47749 14.824 6.47749C14.9923 6.4776 15.1927 6.47772 15.3651 6.45455C15.5731 6.42658 15.8609 6.35171 16.1051 6.1075C16.3493 5.86329 16.4242 5.5755 16.4522 5.36746C16.4753 5.19512 16.4752 4.99472 16.4751 4.8264C16.4751 4.8152 16.4751 4.80413 16.4751 4.79323V4.5827Z" stroke="#274C77" stroke-width="1.68424"/>
<rect x="8.05388" y="3.31954" width="10.9476" height="19.3688" rx="0.842122" stroke="#274C77" stroke-width="1.68424"/>
<circle cx="13.5277" cy="19.3199" r="1.05265" fill="#274C77"/>
</svg>
