<svg width="20" height="20" viewBox="0 0 20 20" fill="none" xmlns="http://www.w3.org/2000/svg">
<path fill-rule="evenodd" clip-rule="evenodd" d="M4.99823 1.66608C4.33542 1.66608 3.69976 1.92938 3.23109 2.39805C2.76241 2.86672 2.49911 3.50238 2.49911 4.16519V15.8277C2.49911 16.4905 2.76241 17.1262 3.23109 17.5948C3.69976 18.0635 4.33542 18.3268 4.99823 18.3268H9.99645C10.6593 18.3268 11.2949 18.0635 11.7636 17.5948C12.2323 17.1262 12.4956 16.4905 12.4956 15.8277V4.16519C12.4956 3.50238 12.2323 2.86672 11.7636 2.39805C11.2949 1.92938 10.6593 1.66608 9.99645 1.66608H4.99823ZM13.5727 6.07534C13.7289 5.91917 13.9407 5.83144 14.1616 5.83144C14.3825 5.83144 14.5944 5.91917 14.7506 6.07534L18.0827 9.40749C18.2389 9.56371 18.3266 9.77556 18.3266 9.99645C18.3266 10.2173 18.2389 10.4292 18.0827 10.5854L14.7506 13.9176C14.5935 14.0693 14.3831 14.1533 14.1646 14.1514C13.9462 14.1495 13.7373 14.0619 13.5828 13.9074C13.4284 13.753 13.3408 13.544 13.3389 13.3256C13.337 13.1072 13.4209 12.8968 13.5727 12.7396L15.4828 10.8295H8.33037C8.10944 10.8295 7.89755 10.7417 7.74133 10.5855C7.5851 10.4293 7.49734 10.2174 7.49734 9.99645C7.49734 9.77551 7.5851 9.56363 7.74133 9.4074C7.89755 9.25118 8.10944 9.16341 8.33037 9.16341H15.4828L13.5727 7.25326C13.4165 7.09704 13.3288 6.88519 13.3288 6.6643C13.3288 6.44341 13.4165 6.23156 13.5727 6.07534V6.07534Z" fill="#274C77"/>
</svg>
