<svg width="16" height="16" viewBox="0 0 16 16" fill="none" xmlns="http://www.w3.org/2000/svg">
<path d="M6.88862 4.81907C7.38544 3.58052 7.63384 2.96124 8.06101 2.96124C8.48817 2.96124 8.73658 3.58052 9.23339 4.81907L9.25652 4.87674C9.5372 5.57646 9.67753 5.92632 9.96355 6.13897C10.2496 6.35162 10.625 6.38525 11.3759 6.4525L11.5117 6.46466C12.7406 6.57472 13.3551 6.62975 13.4866 7.0207C13.6181 7.41164 13.1618 7.82681 12.2491 8.65716L11.9445 8.93429C11.4825 9.35462 11.2515 9.56479 11.1438 9.84024C11.1237 9.89163 11.107 9.94427 11.0938 9.99784C11.023 10.285 11.0907 10.5899 11.226 11.1997L11.2681 11.3895C11.5167 12.5101 11.641 13.0705 11.424 13.3121C11.3429 13.4025 11.2374 13.4675 11.1203 13.4994C10.8069 13.585 10.362 13.2224 9.47211 12.4973C8.88778 12.0211 8.59562 11.783 8.26017 11.7295C8.12823 11.7084 7.99378 11.7084 7.86184 11.7295C7.5264 11.783 7.23423 12.0211 6.6499 12.4973C5.76002 13.2224 5.31508 13.585 5.00168 13.4994C4.88457 13.4675 4.77915 13.4025 4.69804 13.3121C4.48098 13.0705 4.6053 12.5101 4.85394 11.3895L4.89605 11.1997C5.03134 10.5899 5.09899 10.285 5.02822 9.99784C5.01501 9.94427 4.99832 9.89163 4.97823 9.84024C4.87056 9.56479 4.63956 9.35462 4.17754 8.93429L3.87294 8.65716C2.96026 7.82681 2.50392 7.41164 2.6354 7.0207C2.76689 6.62975 3.38137 6.57472 4.61033 6.46466L4.74608 6.4525C5.49699 6.38525 5.87245 6.35162 6.15846 6.13897C6.44448 5.92632 6.58482 5.57646 6.86549 4.87674L6.88862 4.81907Z" fill="#F8F8FB" stroke="#F8F8FB" stroke-width="1.17897"/>
</svg>
