<svg width="16" height="16" viewBox="0 0 16 16" fill="none" xmlns="http://www.w3.org/2000/svg">
<path d="M7.04683 4.81907C7.54364 3.58052 7.79205 2.96124 8.21921 2.96124C8.64637 2.96124 8.89478 3.58052 9.39159 4.81907L9.41473 4.87674C9.6954 5.57646 9.83574 5.92632 10.1218 6.13897C10.4078 6.35162 10.7832 6.38525 11.5341 6.4525L11.6699 6.46466C12.8988 6.57472 13.5133 6.62975 13.6448 7.0207C13.7763 7.41164 13.32 7.82681 12.4073 8.65716L12.1027 8.93429C11.6407 9.35462 11.4097 9.56479 11.302 9.84024C11.2819 9.89163 11.2652 9.94427 11.252 9.99784C11.1812 10.285 11.2489 10.5899 11.3842 11.1997L11.4263 11.3895C11.6749 12.5101 11.7992 13.0705 11.5822 13.3121C11.5011 13.4025 11.3956 13.4675 11.2785 13.4994C10.9651 13.585 10.5202 13.2224 9.63031 12.4973C9.04598 12.0211 8.75382 11.783 8.41838 11.7295C8.28643 11.7084 8.15198 11.7084 8.02004 11.7295C7.6846 11.783 7.39243 12.0211 6.8081 12.4973C5.91822 13.2224 5.47328 13.585 5.15988 13.4994C5.04277 13.4675 4.93736 13.4025 4.85624 13.3121C4.63918 13.0705 4.7635 12.5101 5.01214 11.3895L5.05425 11.1997C5.18955 10.5899 5.25719 10.285 5.18642 9.99784C5.17322 9.94427 5.15652 9.89163 5.13644 9.84024C5.02877 9.56479 4.79776 9.35462 4.33575 8.93429L4.03114 8.65716C3.11846 7.82681 2.66212 7.41164 2.79361 7.0207C2.92509 6.62975 3.53957 6.57472 4.76853 6.46466L4.90428 6.4525C5.65519 6.38525 6.03065 6.35162 6.31667 6.13897C6.60268 5.92632 6.74302 5.57646 7.02369 4.87674L7.04683 4.81907Z" fill="#F8F8FB" stroke="#F8F8FB" stroke-width="1.17897"/>
</svg>
