<svg width="16" height="16" viewBox="0 0 16 16" fill="none" xmlns="http://www.w3.org/2000/svg">
<path d="M6.73042 4.81907C7.22723 3.58052 7.47564 2.96124 7.9028 2.96124C8.32997 2.96124 8.57837 3.58052 9.07518 4.81907L9.09832 4.87674C9.37899 5.57646 9.51933 5.92632 9.80535 6.13897C10.0914 6.35162 10.4668 6.38525 11.2177 6.4525L11.3535 6.46466C12.5824 6.57472 13.1969 6.62975 13.3284 7.0207C13.4599 7.41164 13.0035 7.82681 12.0909 8.65716L11.7863 8.93429C11.3243 9.35462 11.0932 9.56479 10.9856 9.84024C10.9655 9.89163 10.9488 9.94427 10.9356 9.99784C10.8648 10.285 10.9325 10.5899 11.0678 11.1997L11.1099 11.3895C11.3585 12.5101 11.4828 13.0705 11.2658 13.3121C11.1847 13.4025 11.0792 13.4675 10.9621 13.4994C10.6487 13.585 10.2038 13.2224 9.31391 12.4973C8.72958 12.0211 8.43741 11.783 8.10197 11.7295C7.97003 11.7084 7.83558 11.7084 7.70363 11.7295C7.36819 11.783 7.07603 12.0211 6.4917 12.4973C5.60181 13.2224 5.15687 13.585 4.84348 13.4994C4.72637 13.4675 4.62095 13.4025 4.53984 13.3121C4.32277 13.0705 4.44709 12.5101 4.69573 11.3895L4.73785 11.1997C4.87314 10.5899 4.94079 10.285 4.87001 9.99784C4.85681 9.94427 4.84011 9.89163 4.82003 9.84024C4.71236 9.56479 4.48135 9.35462 4.01934 8.93429L3.71473 8.65716C2.80206 7.82681 2.34572 7.41164 2.4772 7.0207C2.60869 6.62975 3.22317 6.57472 4.45213 6.46466L4.58788 6.4525C5.33879 6.38525 5.71424 6.35162 6.00026 6.13897C6.28628 5.92632 6.42661 5.57646 6.70729 4.87674L6.73042 4.81907Z" fill="#F8F8FB" stroke="#F8F8FB" stroke-width="1.17897"/>
</svg>
