<svg width="16" height="16" viewBox="0 0 16 16" fill="none" xmlns="http://www.w3.org/2000/svg">
<path d="M7.20503 4.81907C7.70184 3.58052 7.95025 2.96124 8.37741 2.96124C8.80458 2.96124 9.05298 3.58052 9.54979 4.81907L9.57293 4.87674C9.8536 5.57646 9.99394 5.92632 10.28 6.13897C10.566 6.35162 10.9414 6.38525 11.6923 6.4525L11.8281 6.46466C13.0571 6.57472 13.6715 6.62975 13.803 7.0207C13.9345 7.41164 13.4782 7.82681 12.5655 8.65716L12.2609 8.93429C11.7989 9.35462 11.5679 9.56479 11.4602 9.84024C11.4401 9.89163 11.4234 9.94427 11.4102 9.99784C11.3394 10.285 11.4071 10.5899 11.5424 11.1997L11.5845 11.3895C11.8331 12.5101 11.9574 13.0705 11.7404 13.3121C11.6593 13.4025 11.5538 13.4675 11.4367 13.4994C11.1233 13.585 10.6784 13.2224 9.78852 12.4973C9.20419 12.0211 8.91202 11.783 8.57658 11.7295C8.44464 11.7084 8.31019 11.7084 8.17824 11.7295C7.8428 11.783 7.55064 12.0211 6.96631 12.4973C6.07642 13.2224 5.63148 13.585 5.31809 13.4994C5.20098 13.4675 5.09556 13.4025 5.01445 13.3121C4.79738 13.0705 4.9217 12.5101 5.17034 11.3895L5.21246 11.1997C5.34775 10.5899 5.4154 10.285 5.34462 9.99784C5.33142 9.94427 5.31472 9.89163 5.29464 9.84024C5.18697 9.56479 4.95596 9.35462 4.49395 8.93429L4.18934 8.65716C3.27667 7.82681 2.82033 7.41164 2.95181 7.0207C3.08329 6.62975 3.69777 6.57472 4.92673 6.46466L5.06249 6.4525C5.8134 6.38525 6.18885 6.35162 6.47487 6.13897C6.76088 5.92632 6.90122 5.57646 7.1819 4.87674L7.20503 4.81907Z" fill="#F8F8FB" stroke="#F8F8FB" stroke-width="1.17897"/>
</svg>
